#Comment line ignore any data following # character 
#Hierarchical Translation and Rotation (.htr) file 
[Header]	
#Header keywords are followed by a single value 
FileType HTR		#Single word string
DataType HTRS		#Translation followed by rotation and scale data
FileVersion 1		#integer
NumSegments 64		#integer
NumFrames 3		#integer
DataFrameRate 30		#integer, data frame rate in this file
EulerRotationOrder ZYX
CalibrationUnits mm
RotationUnits Degrees
GlobalAxisofGravity Y
BoneLengthAxis Y
ScaleFactor 1.00
[SegmentNames&Hierarchy]
#CHILD	PARENT
Pinger_Root GLOBAL
Pelvis Pinger_Root
L_Hip Pelvis
R_Hip Pelvis
Rear_Leg01 Pelvis
Spine1 Pelvis
L_Leg01 L_Hip
L_Leg02 L_Leg01
L_Leg03 L_Leg02
L_Foot L_Leg03
L_Toe1_01 L_Foot
L_Toe2_01 L_Foot
L_Toe3_01 L_Foot
planeAlignerLeft L_Foot
L_Toe1_02 L_Toe1_01
L_Toe1_03 L_Toe1_02
L_Toe2_02 L_Toe2_01
L_Toe2_03 L_Toe2_02
L_Toe3_02 L_Toe3_01
L_Toe3_03 L_Toe3_02
planeLockWeightLeft planeAlignerLeft
R_Leg01 R_Hip
R_Leg02 R_Leg01
R_Leg03 R_Leg02
R_Foot R_Leg03
planeAlignerRight R_Foot
R_Toe1_01 R_Foot
R_Toe2_01 R_Foot
R_Toe3_01 R_Foot
planeLockWeightRight planeAlignerRight
R_Toe1_02 R_Toe1_01
R_Toe1_03 R_Toe1_02
R_Toe2_02 R_Toe2_01
R_Toe2_03 R_Toe2_02
R_Toe3_02 R_Toe3_01
R_Toe3_03 R_Toe3_02
Rear_Leg02 Rear_Leg01
Rear_Leg03 Rear_Leg02
Rear_Leg04 Rear_Leg03
Rear_Foot Rear_Leg04
planeAlignerCenter Rear_Foot
Rear_Toe1_01 Rear_Foot
Rear_Toe2_01 Rear_Foot
Rear_Toe3_01 Rear_Foot
planeLockWeightCenter planeAlignerCenter
Rear_Toe1_02 Rear_Toe1_01
Rear_Toe1_03 Rear_Toe1_02
Rear_Toe2_02 Rear_Toe2_01
Rear_Toe2_03 Rear_Toe2_02
Rear_Toe3_02 Rear_Toe3_01
Rear_Toe3_03 Rear_Toe3_02
Back_Bone Spine1
Head Spine1
Motor_Bone Back_Bone
Ping_Mechanism Back_Bone
BN_LookIK Head
bottomMouth Head
L_Mouth01 Head
L_mouthFront Head
mouthGun Head
R_Mouth01 Head
R_mouthFront Head
TopMouth Head
weapon_bone Head
[BasePosition]
#SegmentName Tx, Ty, Tz, Rx, Ry, Rz, BoneLength
Pinger_Root 0.000000 0.000000 0.000000 -90.000000 0.000000 0.000000 10.000000 
Pelvis 0.000000 0.000000 0.000000 0.000000 0.000000 0.000000 10.000000 
L_Hip 0.000000 0.000000 0.000000 0.000000 0.000000 0.000000 10.000000 
R_Hip 0.000000 0.000000 0.000000 0.000000 0.000000 0.000000 10.000000 
Rear_Leg01 0.000000 0.000000 0.000000 0.000000 0.000000 0.000000 10.000000 
Spine1 0.000000 0.000000 0.000000 0.000000 0.000000 0.000000 10.000000 
L_Leg01 0.000000 0.000000 0.000000 0.000000 0.000000 0.000000 10.000000 
L_Leg02 0.000000 0.000000 0.000000 0.000000 0.000000 0.000000 10.000000 
L_Leg03 0.000000 0.000000 0.000000 0.000000 0.000000 0.000000 10.000000 
L_Foot 0.000000 0.000000 0.000000 0.000000 0.000000 0.000000 10.000000 
L_Toe1_01 0.000000 0.000000 0.000000 0.000000 0.000000 0.000000 10.000000 
L_Toe2_01 0.000000 0.000000 0.000000 0.000000 0.000000 0.000000 10.000000 
L_Toe3_01 0.000000 0.000000 0.000000 0.000000 0.000000 0.000000 10.000000 
planeAlignerLeft 0.000000 0.000000 0.000000 0.000000 0.000000 0.000000 10.000000 
L_Toe1_02 0.000000 0.000000 0.000000 0.000000 0.000000 0.000000 10.000000 
L_Toe1_03 0.000000 0.000000 0.000000 0.000000 0.000000 0.000000 10.000000 
L_Toe2_02 0.000000 0.000000 0.000000 0.000000 0.000000 0.000000 10.000000 
L_Toe2_03 0.000000 0.000000 0.000000 0.000000 0.000000 0.000000 10.000000 
L_Toe3_02 0.000000 0.000000 0.000000 0.000000 0.000000 0.000000 10.000000 
L_Toe3_03 0.000000 0.000000 0.000000 0.000000 0.000000 0.000000 10.000000 
planeLockWeightLeft 0.000000 0.000000 0.000000 0.000000 0.000000 0.000000 10.000000 
R_Leg01 0.000000 0.000000 0.000000 0.000000 0.000000 0.000000 10.000000 
R_Leg02 0.000000 0.000000 0.000000 0.000000 0.000000 0.000000 10.000000 
R_Leg03 0.000000 0.000000 0.000000 0.000000 0.000000 0.000000 10.000000 
R_Foot 0.000000 0.000000 0.000000 0.000000 0.000000 0.000000 10.000000 
planeAlignerRight 0.000000 0.000000 0.000000 0.000000 0.000000 0.000000 10.000000 
R_Toe1_01 0.000000 0.000000 0.000000 0.000000 0.000000 0.000000 10.000000 
R_Toe2_01 0.000000 0.000000 0.000000 0.000000 0.000000 0.000000 10.000000 
R_Toe3_01 0.000000 0.000000 0.000000 0.000000 0.000000 0.000000 10.000000 
planeLockWeightRight 0.000000 0.000000 0.000000 0.000000 0.000000 0.000000 10.000000 
R_Toe1_02 0.000000 0.000000 0.000000 0.000000 0.000000 0.000000 10.000000 
R_Toe1_03 0.000000 0.000000 0.000000 0.000000 0.000000 0.000000 10.000000 
R_Toe2_02 0.000000 0.000000 0.000000 0.000000 0.000000 0.000000 10.000000 
R_Toe2_03 0.000000 0.000000 0.000000 0.000000 0.000000 0.000000 10.000000 
R_Toe3_02 0.000000 0.000000 0.000000 0.000000 0.000000 0.000000 10.000000 
R_Toe3_03 0.000000 0.000000 0.000000 0.000000 0.000000 0.000000 10.000000 
Rear_Leg02 0.000000 0.000000 0.000000 0.000000 0.000000 0.000000 10.000000 
Rear_Leg03 0.000000 0.000000 0.000000 0.000000 0.000000 0.000000 10.000000 
Rear_Leg04 0.000000 0.000000 0.000000 0.000000 0.000000 0.000000 10.000000 
Rear_Foot 0.000000 0.000000 0.000000 0.000000 0.000000 0.000000 10.000000 
planeAlignerCenter 0.000000 0.000000 0.000000 0.000000 0.000000 0.000000 10.000000 
Rear_Toe1_01 0.000000 0.000000 0.000000 0.000000 0.000000 0.000000 10.000000 
Rear_Toe2_01 0.000000 0.000000 0.000000 0.000000 0.000000 0.000000 10.000000 
Rear_Toe3_01 0.000000 0.000000 0.000000 0.000000 0.000000 0.000000 10.000000 
planeLockWeightCenter 0.000000 0.000000 0.000000 0.000000 0.000000 0.000000 10.000000 
Rear_Toe1_02 0.000000 0.000000 0.000000 0.000000 0.000000 0.000000 10.000000 
Rear_Toe1_03 0.000000 0.000000 0.000000 0.000000 0.000000 0.000000 10.000000 
Rear_Toe2_02 0.000000 0.000000 0.000000 0.000000 0.000000 0.000000 10.000000 
Rear_Toe2_03 0.000000 0.000000 0.000000 0.000000 0.000000 0.000000 10.000000 
Rear_Toe3_02 0.000000 0.000000 0.000000 0.000000 0.000000 0.000000 10.000000 
Rear_Toe3_03 0.000000 0.000000 0.000000 0.000000 0.000000 0.000000 10.000000 
Back_Bone 0.000000 0.000000 0.000000 0.000000 0.000000 0.000000 10.000000 
Head 0.000000 0.000000 0.000000 0.000000 0.000000 0.000000 10.000000 
Motor_Bone 0.000000 0.000000 0.000000 0.000000 0.000000 0.000000 10.000000 
Ping_Mechanism 0.000000 0.000000 0.000000 0.000000 0.000000 0.000000 10.000000 
BN_LookIK 0.000000 0.000000 0.000000 0.000000 0.000000 0.000000 10.000000 
bottomMouth 0.000000 0.000000 0.000000 0.000000 0.000000 0.000000 10.000000 
L_Mouth01 0.000000 0.000000 0.000000 0.000000 0.000000 0.000000 10.000000 
L_mouthFront 0.000000 0.000000 0.000000 0.000000 0.000000 0.000000 10.000000 
mouthGun 0.000000 0.000000 0.000000 0.000000 0.000000 0.000000 10.000000 
R_Mouth01 0.000000 0.000000 0.000000 0.000000 0.000000 0.000000 10.000000 
R_mouthFront 0.000000 0.000000 0.000000 0.000000 0.000000 0.000000 10.000000 
TopMouth 0.000000 0.000000 0.000000 0.000000 0.000000 0.000000 10.000000 
weapon_bone 0.000000 0.000000 0.000000 0.000000 0.000000 0.000000 10.000000 
#Beginning of Data. Separated by tabs
#Fr	Tx	Ty	Tz	Rx	Ry	Rz	SF
[Pinger_Root]
45 0.000000 0.000000 0.000000 -0.000075 -0.000000 -0.000020 0.000000
46 0.000000 0.000000 0.000000 -0.000075 -0.000000 -0.000020 0.000000
47 0.000000 0.000000 0.000000 -0.000075 -0.000000 -0.000020 0.000000
[Pelvis]
45 -1143.032471 494.453888 3760.866455 -129.393448 -59.322163 144.235062 3961.707275
46 -1130.324585 535.515442 3790.291992 -129.715164 -60.493294 144.132996 3991.331055
47 -1095.647583 579.263306 3805.081055 -130.672882 -63.547318 143.952637 4001.828369
[L_Hip]
45 5.766392 125.831482 872.656799 -152.293610 -41.845699 57.260994 881.701050
46 5.766392 125.831482 872.656799 -152.293610 -41.845699 57.260994 881.701050
47 5.766392 125.831482 872.656799 -152.293610 -41.845699 57.260994 881.701050
[R_Hip]
45 5.765438 125.836372 -872.654907 38.087841 49.812687 125.703735 881.699829
46 5.765438 125.836372 -872.654907 38.087841 49.812687 125.703735 881.699829
47 5.765438 125.836372 -872.654907 38.087841 49.812687 125.703735 881.699829
[Rear_Leg01]
45 -192.298416 -925.602966 -0.001907 -172.768646 -21.493629 -137.272903 945.367432
46 -192.298416 -925.602966 -0.001907 -173.782196 -19.745081 -136.894592 945.367432
47 -192.298416 -925.602966 -0.001907 -174.662933 -16.700554 -135.240723 945.367432
[Spine1]
45 290.604584 5.007505 0.000477 1.855949 26.998177 28.610924 290.647736
46 290.604584 5.007505 0.000477 2.482932 25.952963 29.286240 290.647736
47 290.604584 5.007505 0.000477 3.135858 23.698414 31.063232 290.647736
[L_Leg01]
45 761.932007 -0.002384 -0.069261 39.893871 -26.567984 -43.949581 761.932068
46 761.932007 -0.002384 -0.069261 39.821236 -26.868685 -44.129131 761.932068
47 761.932007 -0.002384 -0.069261 40.178570 -26.068066 -46.609791 761.932068
[L_Leg02]
45 1441.140503 -0.000954 -0.000715 5.533643 1.376789 -103.022903 1441.140503
46 1441.140503 -0.000954 -0.000715 5.443441 1.327018 -106.393288 1441.140503
47 1441.140503 -0.000954 -0.000715 5.194201 1.161960 -108.848183 1441.140503
[L_Leg03]
45 1686.963989 -0.000715 -0.000954 -0.101166 0.059550 137.274994 1686.963989
46 1686.963989 -0.000715 -0.000954 -0.101324 0.059281 136.970673 1686.963989
47 1686.963989 -0.000715 -0.000954 -0.095415 0.055636 135.937546 1686.963989
[L_Foot]
45 3041.570068 -30.715107 11.297464 -11.728694 17.158113 25.406927 3041.746094
46 3041.570068 -30.715107 11.297464 -11.970901 17.156975 27.959608 3041.746094
47 3041.570068 -30.715107 11.297464 -12.644144 17.187246 30.741856 3041.746094
[L_Toe1_01]
45 -188.216690 -224.732346 -21.137953 78.131004 -16.217760 179.176727 293.899567
46 -188.216690 -224.732346 -21.137953 77.997604 -16.046167 179.602142 293.899567
47 -188.216690 -224.732346 -21.137953 77.865631 -15.873626 -179.973206 293.899567
[L_Toe2_01]
45 200.746536 -219.926590 148.838394 -73.655289 -21.152790 -61.886925 332.896027
46 200.746536 -219.926590 148.838394 -73.601654 -21.235901 -62.110195 332.896027
47 200.746536 -219.926590 148.838394 -73.547646 -21.318823 -62.333702 332.896027
[L_Toe3_01]
45 188.832520 -219.859131 -191.078659 -111.965881 34.940750 -56.179512 347.140900
46 188.832520 -219.859131 -191.078659 -112.122551 34.966991 -56.580582 347.140900
47 188.832520 -219.859131 -191.078659 -112.189377 35.380817 -56.825104 347.140900
[planeAlignerLeft]
45 12.584822 -581.736755 143.598679 -10.781047 -84.812424 -89.942856 599.330139
46 8.601440 -584.618896 143.335266 -10.778334 -84.808006 -89.945358 601.995239
47 -0.287645 -584.726868 143.326569 -10.775746 -84.803711 -89.947891 602.036621
[L_Toe1_02]
45 413.761139 0.000477 0.000000 0.001424 -20.961102 0.001424 413.761139
46 413.761139 0.000477 0.000000 0.001422 -21.217716 0.001422 413.761139
47 413.761139 0.000477 0.000000 0.001420 -21.474333 0.001420 413.761139
[L_Toe1_03]
45 464.317322 0.000358 -0.000089 0.044049 86.946297 0.044049 464.317322
46 464.317322 0.000358 -0.000089 0.036296 86.293922 0.036296 464.317322
47 464.317322 0.000358 -0.000089 0.026867 84.992653 0.026867 464.317322
[L_Toe2_02]
45 342.235809 -0.000477 0.000238 0.001191 -70.232010 0.001191 342.235809
46 342.235809 -0.000477 0.000238 0.001191 -70.259178 0.001191 342.235809
47 342.235809 -0.000477 0.000238 0.001190 -70.755806 0.001190 342.235809
[L_Toe2_03]
45 420.210846 -0.000715 0.000000 0.013422 79.967361 0.013422 420.210846
46 420.210846 -0.000715 0.000000 0.013686 80.161110 0.013686 420.210846
47 420.210846 -0.000715 0.000000 0.015549 81.342674 0.015549 420.210846
[L_Toe3_02]
45 329.270111 0.000954 0.000000 0.004677 -83.952728 0.004677 329.270111
46 329.270111 0.000954 0.000000 0.004677 -83.959381 0.004677 329.270111
47 329.270111 0.000954 0.000000 0.004677 -83.966003 0.004677 329.270111
[L_Toe3_03]
45 439.137451 -0.001907 0.000954 179.991913 59.613945 179.999146 439.137451
46 439.137451 -0.001907 0.000954 179.991913 59.579754 179.999146 439.137451
47 439.137451 -0.001907 0.000954 179.991989 58.902744 179.999252 439.137451
[planeLockWeightLeft]
45 1000.000000 -0.000160 -0.000226 -0.011826 -0.004376 0.005620 1000.000000
46 1000.000000 -0.000174 -0.000221 -0.011826 -0.004376 0.005620 1000.000000
47 1000.000122 -0.000189 -0.000215 -0.011826 -0.004376 0.005620 1000.000122
[R_Leg01]
45 761.455627 -0.001907 -0.000358 169.776825 -1.938396 29.157614 761.455688
46 761.455627 -0.001907 -0.000358 166.341858 -0.556187 31.632580 761.455688
47 761.455627 -0.001907 -0.000358 157.783188 2.930513 34.195454 761.455688
[R_Leg02]
45 1441.140625 0.000000 -0.000238 0.231610 0.093143 -68.209908 1441.140625
46 1441.140625 0.000000 -0.000238 0.255025 0.092011 -66.391891 1441.140625
47 1441.140625 0.000000 -0.000238 0.407177 0.066751 -66.214897 1441.140625
[R_Leg03]
45 1686.963989 0.000954 0.001431 -0.031800 0.010105 101.042282 1686.963989
46 1686.963989 0.000954 0.001431 -0.028564 0.006668 102.584351 1686.963989
47 1686.963989 0.000954 0.001431 -0.011503 0.001778 107.575378 1686.963989
[R_Foot]
45 3041.560059 -30.531288 -11.204481 15.315540 9.739474 36.778111 3041.734131
46 3041.560059 -30.531288 -11.204481 15.931092 9.435085 34.918530 3041.734131
47 3041.560059 -30.531288 -11.204481 17.709507 8.509127 30.429600 3041.734131
[planeAlignerRight]
45 -20.322298 -473.240143 -300.132355 -36.577118 -71.338989 -64.343925 560.757202
46 -7.076618 -470.299438 -280.126495 -36.577137 -71.339012 -64.343925 547.450928
47 20.569952 -481.336273 -237.331589 -36.577137 -71.339012 -64.343925 537.060547
[R_Toe1_01]
45 -188.383347 -224.864899 21.052242 50.617371 11.066245 177.518188 294.101532
46 -188.383347 -224.864899 21.052242 54.003056 10.595222 178.454849 294.101532
47 -188.383347 -224.864899 21.052242 62.764549 11.247089 -176.725082 294.101532
[R_Toe2_01]
45 200.637817 -220.002121 -148.787384 -93.259598 47.091042 -47.419014 332.857574
46 200.637817 -220.002121 -148.787384 -92.063232 43.239540 -45.590836 332.857574
47 200.637817 -220.002121 -148.787384 -91.607887 34.003010 -45.434509 332.857574
[R_Toe3_01]
45 188.606735 -220.092957 191.126343 -60.118103 -13.802598 -67.445892 347.192566
46 188.606735 -220.092957 191.126343 -58.346142 -12.603069 -67.108360 347.192566
47 188.606735 -220.092957 191.126343 -53.554081 -8.838451 -67.457909 347.192566
[planeLockWeightRight]
45 999.999451 0.000305 -0.000481 -0.011823 -0.004379 -0.000027 999.999451
46 999.999451 0.000305 -0.000488 -0.011823 -0.004379 -0.000027 999.999451
47 999.999451 0.000305 -0.000495 -0.011823 -0.004379 -0.000027 999.999451
[R_Toe1_02]
45 413.762085 0.000477 -0.000119 0.001398 -24.183826 0.001398 413.762085
46 413.762085 0.000477 -0.000119 0.001405 -23.238831 0.001405 413.762085
47 413.762085 0.000477 -0.000119 0.001419 -21.554903 0.001419 413.762085
[R_Toe1_03]
45 464.317810 0.000000 0.001088 0.007701 72.467400 0.007701 464.317810
46 464.317810 0.000000 0.001088 0.010687 77.390160 0.010687 464.317810
47 464.317810 0.000000 0.001088 -0.014175 84.697662 -0.010675 464.317810
[R_Toe2_02]
45 342.234741 -0.000954 0.000238 -0.002331 -80.804741 -0.002331 342.234741
46 342.234741 -0.000954 0.000238 -0.002331 -80.843628 -0.002331 342.234741
47 342.234741 -0.000954 0.000238 -0.002331 -80.622940 -0.002331 342.234741
[R_Toe2_03]
45 420.210846 0.000715 -0.000268 -179.996429 50.947384 179.999878 420.210846
46 420.210846 0.000715 -0.000268 -179.996414 51.204967 179.999878 420.210846
47 420.210846 0.000715 -0.000268 -179.996216 55.830143 -179.999878 420.210846
[R_Toe3_02]
45 329.270355 -0.000477 -0.000954 0.001177 -80.811127 0.001177 329.270355
46 329.270355 -0.000477 -0.000954 0.001177 -80.746262 0.001177 329.270355
47 329.270355 -0.000477 -0.000954 0.001178 -80.130920 0.001178 329.270355
[R_Toe3_03]
45 439.137939 0.000238 0.001431 -179.996613 77.212898 -179.993088 439.137939
46 439.137939 0.000238 0.001431 -179.996490 77.466316 -179.992966 439.137939
47 439.137939 0.000238 0.001431 -179.995239 79.889824 -179.991730 439.137939
[Rear_Leg02]
45 1162.777710 -0.029802 0.005960 4.722940 -6.214015 -106.827148 1162.777710
46 1162.777710 -0.029802 0.005960 4.611932 -6.297482 -105.844238 1162.777710
47 1162.777710 -0.029802 0.005960 4.579705 -6.322163 -105.547188 1162.777710
[Rear_Leg03]
45 607.192505 -0.013351 -0.073195 0.010259 -0.005559 73.257584 607.192505
46 607.192505 -0.013351 -0.073195 0.010272 -0.005534 72.983337 607.192505
47 607.192505 -0.013351 -0.073195 0.010277 -0.005527 72.897247 607.192505
[Rear_Leg04]
45 995.874512 -0.020504 -0.011921 -0.043408 -0.016684 78.479820 995.874573
46 995.874512 -0.020504 -0.011921 -0.041751 -0.015030 77.764633 995.874573
47 995.874512 -0.020504 -0.011921 -0.041721 -0.015113 77.536278 995.874573
[Rear_Foot]
45 3096.176270 -0.067472 -0.041425 -26.073238 71.953751 132.706360 3096.176270
46 3096.176270 -0.067472 -0.041425 -28.012857 73.171440 132.285217 3096.176270
47 3096.176270 -0.067472 -0.041425 -31.285900 74.917671 132.711197 3096.176270
[planeAlignerCenter]
45 9.829735 57.570934 -805.567078 12.240772 -0.001473 179.998184 807.681519
46 8.345818 42.983620 -797.423950 12.240772 -0.001473 179.998184 798.625183
47 6.909354 22.965391 -780.511169 12.240772 -0.001473 179.998184 780.879456
[Rear_Toe1_01]
45 0.653352 83.966492 -371.173737 16.210833 74.867928 106.233826 380.553192
46 0.653352 83.966492 -371.173737 12.020823 70.360138 102.095345 380.553192
47 0.653352 83.966492 -371.173737 6.333603 58.920532 96.596832 380.553192
[Rear_Toe2_01]
45 178.200760 -294.826019 -362.060547 -10.466681 31.508640 -82.139450 499.765686
46 178.200760 -294.826019 -362.060547 -10.197700 30.574646 -81.542763 499.765686
47 178.200760 -294.826019 -362.060547 -9.710055 29.174112 -79.831787 499.765686
[Rear_Toe3_01]
45 -153.359680 -308.780914 -362.060852 4.732474 33.420033 -106.009666 499.952881
46 -153.359680 -308.780914 -362.060852 4.625930 32.410007 -106.230530 499.952881
47 -153.359680 -308.780914 -362.060852 4.414781 30.787098 -106.902794 499.952881
[planeLockWeightCenter]
45 0.000195 0.000305 0.000021 -0.011814 -0.004373 -0.000015 0.000363
46 0.000186 0.000305 0.000017 -0.011814 -0.004373 -0.000015 0.000358
47 0.000178 0.000305 0.000013 -0.011814 -0.004373 -0.000015 0.000354
[Rear_Toe1_02]
45 379.707825 0.194073 0.000477 -0.002650 -32.510429 -0.002650 379.707855
46 379.707825 0.194073 0.000477 -0.006658 -31.872160 -0.006658 379.707855
47 379.707825 0.194073 0.000477 -0.006699 -30.639627 -0.006699 379.707855
[Rear_Toe1_03]
45 500.129700 0.165701 0.000119 -179.971085 87.575127 -179.974579 500.129761
46 500.129700 0.165701 0.000119 -179.989594 82.383614 -179.993088 500.129761
47 500.129700 0.165701 0.000119 -179.994049 74.212532 -179.997574 500.129761
[Rear_Toe2_02]
45 340.494507 0.000238 -0.000954 0.001184 -74.773621 0.001184 340.494507
46 340.494507 0.000238 -0.000954 0.001185 -73.910950 0.001185 340.494507
47 340.494507 0.000238 -0.000954 0.001187 -72.751755 0.001187 340.494507
[Rear_Toe2_03]
45 433.103577 0.000000 0.000238 0.011076 77.834496 0.011076 433.103546
46 433.103577 0.000000 0.000238 0.009861 76.329605 0.009861 433.103546
47 433.103577 0.000000 0.000238 0.008654 74.411034 0.008654 433.103546
[Rear_Toe3_02]
45 340.494141 -0.000358 -0.000477 0.001177 -81.377388 0.001177 340.494171
46 340.494141 -0.000358 -0.000477 0.001178 -80.253792 0.001178 340.494171
47 340.494141 -0.000358 -0.000477 0.001180 -78.199409 0.001180 340.494171
[Rear_Toe3_03]
45 433.103577 0.001431 -0.000238 0.000000 89.585510 0.003501 433.103546
46 433.103577 0.001431 -0.000238 -0.036867 88.124245 -0.033370 433.103546
47 433.103577 0.001431 -0.000238 -0.012813 84.043785 -0.009312 433.103546
[Back_Bone]
45 1312.175781 -701.934692 0.000954 2.790756 -1.457651 -85.682373 1488.125488
46 1312.175781 -701.934692 0.000954 2.790756 -1.457651 -85.682373 1488.125488
47 1312.175781 -701.934692 0.000954 2.790756 -1.457651 -85.682373 1488.125488
[Head]
45 1406.159424 809.709290 0.001431 -1.623609 2.697531 7.613079 1622.625488
46 1406.159424 809.709290 0.001431 -1.623609 2.697531 7.613079 1622.625488
47 1406.159424 809.709290 0.001431 -1.623609 2.697531 7.613079 1622.625488
[Motor_Bone]
45 1158.364380 -417.834747 0.000477 3.394448 -1.301977 -115.970810 1231.419434
46 1158.364380 -417.834747 0.000477 3.394448 -1.301977 -115.970810 1231.419434
47 1158.364380 -417.834747 0.000477 3.394448 -1.301977 -115.970810 1231.419434
[Ping_Mechanism]
45 1295.400024 -482.064789 -122.955635 0.000103 -0.000053 82.120995 1387.647583
46 1293.109375 -481.654968 -117.344292 0.000103 -0.000053 82.120995 1384.880127
47 1284.935913 -478.945953 -104.713402 0.000103 -0.000053 82.120995 1375.286987
[BN_LookIK]
45 193.241119 1380.371704 -0.002861 0.000000 89.965736 -31.038179 1393.832153
46 193.241119 1380.371704 -0.002861 0.000000 89.965736 -31.038179 1393.832153
47 193.241119 1380.371704 -0.002861 0.000000 89.965736 -31.038179 1393.832153
[bottomMouth]
45 -435.092926 615.759399 -0.000954 -0.000022 0.000016 73.527184 753.966492
46 -435.092926 615.759399 -0.000954 -0.000022 0.000016 73.527184 753.966492
47 -435.092926 615.759399 -0.000954 -0.000022 0.000016 73.527184 753.966492
[L_Mouth01]
45 554.440979 7.658243 838.222046 150.204178 23.759130 109.605339 1005.027161
46 554.440979 7.658243 838.222046 150.204178 23.759130 109.605339 1005.027161
47 554.440979 7.658243 838.222046 150.204178 23.759130 109.605339 1005.027161
[L_mouthFront]
45 551.629089 934.514771 339.150421 0.000081 2.804060 79.119301 1136.941284
46 551.629089 934.514771 339.150421 0.000081 2.804060 79.119301 1136.941284
47 551.629089 934.514771 339.150421 0.000081 2.804060 79.119301 1136.941284
[mouthGun]
45 55.332661 1627.420898 0.000000 0.000023 0.000009 -11.038128 1628.361328
46 55.332661 1627.420898 0.000000 0.000023 0.000009 -11.038128 1628.361328
47 55.332661 1627.420898 0.000000 0.000023 0.000009 -11.038128 1628.361328
[R_Mouth01]
45 554.442383 7.659197 -838.223938 29.795891 -23.759109 109.605331 1005.029541
46 554.442383 7.659197 -838.223938 29.795891 -23.759109 109.605331 1005.029541
47 554.442383 7.659197 -838.223938 29.795891 -23.759109 109.605331 1005.029541
[R_mouthFront]
45 551.629089 934.514282 -339.151367 0.000029 -2.803930 79.119133 1136.941162
46 551.629089 934.514282 -339.151367 0.000029 -2.803930 79.119133 1136.941162
47 551.629089 934.514282 -339.151367 0.000029 -2.803930 79.119133 1136.941162
[TopMouth]
45 461.269867 -56.106091 -0.008583 -0.000059 -0.000268 92.025169 464.669525
46 461.269867 -56.106091 -0.008583 -0.000059 -0.000268 92.025169 464.669525
47 461.269867 -56.106091 -0.008583 -0.000059 -0.000268 92.025169 464.669525
[weapon_bone]
45 -987.239868 1448.372803 0.001431 0.000000 89.965736 -31.038221 1752.833740
46 -987.239868 1448.372803 0.001431 0.000000 89.965736 -31.038221 1752.833740
47 -987.239868 1448.372803 0.001431 0.000000 89.965736 -31.038221 1752.833740
